<svg xmlns="http://www.w3.org/2000/svg" width="1600" height="900" viewBox="0 0 1600 900">
  <defs>
    <linearGradient id="bg" x1="0" y1="0" x2="1" y2="1">
      <stop offset="0" stop-color="#f9f5ef" />
      <stop offset="1" stop-color="#f2e6d6" />
    </linearGradient>
    <linearGradient id="accent" x1="0" y1="0" x2="1" y2="0">
      <stop offset="0" stop-color="#e07a5f" />
      <stop offset="1" stop-color="#f2cc8f" />
    </linearGradient>
  </defs>
  <rect width="1600" height="900" fill="url(#bg)" />
  <circle cx="280" cy="220" r="160" fill="#f4a261" opacity="0.25" />
  <circle cx="1320" cy="140" r="220" fill="#e76f51" opacity="0.2" />
  <rect x="140" y="560" width="520" height="220" rx="36" fill="#ffffff" opacity="0.85" />
  <rect x="220" y="610" width="360" height="18" rx="9" fill="#e0d5c5" />
  <rect x="220" y="650" width="280" height="18" rx="9" fill="#e0d5c5" />
  <rect x="220" y="690" width="200" height="18" rx="9" fill="#e0d5c5" />
  <path d="M900 590c70-90 200-120 320-60 80 40 120 120 90 190-24 56-80 90-150 90-120 0-260-80-260-220z" fill="url(#accent)" opacity="0.7" />
  <path d="M980 520c18-28 52-40 80-26 28 14 36 48 18 76-18 28-52 40-80 26-28-14-36-48-18-76z" fill="#ffffff" opacity="0.7" />
  <path d="M1120 470c10-16 30-22 46-14 16 8 22 30 12 46-10 16-30 22-46 14-16-8-22-30-12-46z" fill="#ffffff" opacity="0.7" />
</svg>
