<svg xmlns="http://www.w3.org/2000/svg" width="1600" height="900" viewBox="0 0 1600 900">
  <defs>
    <linearGradient id="bg" x1="0" y1="0" x2="1" y2="1">
      <stop offset="0" stop-color="#ecfff5" />
      <stop offset="1" stop-color="#d9f7e8" />
    </linearGradient>
    <linearGradient id="accent" x1="0" y1="0" x2="1" y2="1">
      <stop offset="0" stop-color="#16a34a" />
      <stop offset="1" stop-color="#22c55e" />
    </linearGradient>
  </defs>
  <rect width="1600" height="900" fill="url(#bg)" />
  <path d="M220 700c120-120 360-140 520-20 120 90 150 230 60 320-70 70-200 90-330 40-190-70-290-220-250-340z" fill="#bbf7d0" opacity="0.8" />
  <rect x="820" y="160" width="620" height="520" rx="44" fill="#ffffff" opacity="0.9" />
  <rect x="900" y="230" width="460" height="20" rx="10" fill="#c5e7d3" />
  <rect x="900" y="270" width="360" height="20" rx="10" fill="#c5e7d3" />
  <rect x="900" y="310" width="300" height="20" rx="10" fill="#c5e7d3" />
  <rect x="900" y="360" width="420" height="20" rx="10" fill="#c5e7d3" />
  <rect x="900" y="400" width="280" height="20" rx="10" fill="#c5e7d3" />
  <path d="M520 260c40-30 90-40 140-24 70 22 120 90 100 160-18 60-80 100-150 90-90-12-150-100-120-180 8-20 18-34 30-46z" fill="url(#accent)" opacity="0.7" />
</svg>
