<svg xmlns="http://www.w3.org/2000/svg" width="1600" height="900" viewBox="0 0 1600 900">
  <defs>
    <linearGradient id="bg" x1="0" y1="0" x2="1" y2="1">
      <stop offset="0" stop-color="#eef4ff" />
      <stop offset="1" stop-color="#d9e8ff" />
    </linearGradient>
    <linearGradient id="accent" x1="0" y1="0" x2="1" y2="0">
      <stop offset="0" stop-color="#3b82f6" />
      <stop offset="1" stop-color="#06b6d4" />
    </linearGradient>
  </defs>
  <rect width="1600" height="900" fill="url(#bg)" />
  <rect x="120" y="160" width="520" height="520" rx="48" fill="#ffffff" opacity="0.85" />
  <rect x="190" y="230" width="380" height="22" rx="11" fill="#c9d7f2" />
  <rect x="190" y="280" width="320" height="22" rx="11" fill="#c9d7f2" />
  <rect x="190" y="330" width="260" height="22" rx="11" fill="#c9d7f2" />
  <rect x="190" y="380" width="300" height="22" rx="11" fill="#c9d7f2" />
  <path d="M920 640c70-120 240-180 380-120 120 50 160 180 90 280-40 56-112 90-200 90-160 0-300-110-270-250z" fill="url(#accent)" opacity="0.7" />
  <circle cx="1080" cy="520" r="52" fill="#ffffff" opacity="0.7" />
  <circle cx="1230" cy="520" r="36" fill="#ffffff" opacity="0.7" />
  <circle cx="1170" cy="430" r="28" fill="#ffffff" opacity="0.7" />
</svg>
