<svg xmlns="http://www.w3.org/2000/svg" width="1600" height="900" viewBox="0 0 1600 900">
  <defs>
    <linearGradient id="bg" x1="0" y1="0" x2="1" y2="1">
      <stop offset="0" stop-color="#fff7ed" />
      <stop offset="1" stop-color="#ffe7d1" />
    </linearGradient>
    <linearGradient id="accent" x1="0" y1="0" x2="1" y2="0">
      <stop offset="0" stop-color="#f97316" />
      <stop offset="1" stop-color="#fb923c" />
    </linearGradient>
  </defs>
  <rect width="1600" height="900" fill="url(#bg)" />
  <circle cx="1180" cy="640" r="220" fill="#fed7aa" opacity="0.8" />
  <circle cx="420" cy="240" r="180" fill="#ffedd5" opacity="0.8" />
  <rect x="520" y="220" width="560" height="460" rx="50" fill="#ffffff" opacity="0.9" />
  <rect x="600" y="300" width="400" height="22" rx="11" fill="#f2d3b5" />
  <rect x="600" y="350" width="300" height="22" rx="11" fill="#f2d3b5" />
  <rect x="600" y="400" width="360" height="22" rx="11" fill="#f2d3b5" />
  <rect x="600" y="450" width="260" height="22" rx="11" fill="#f2d3b5" />
  <path d="M980 520c40-70 130-90 190-40 40 32 50 90 20 140-24 40-80 60-140 40-80-26-110-110-70-140z" fill="url(#accent)" opacity="0.7" />
</svg>
